<svg width="18" height="18" viewBox="0 0 18 18" fill="none" xmlns="http://www.w3.org/2000/svg">
    <path d="M0.269651 9.6118L9.509 17.9014C9.57992 17.9646 9.6704 18 9.76578 18L11.9301 18C12.1111 18 12.1942 17.7674 12.0573 17.6461L3.4929 9.96068L17.8044 9.96067C17.912 9.96067 18 9.86966 18 9.75843L18 8.24157C18 8.13034 17.912 8.03933 17.8044 8.03933L3.49535 8.03933L12.0597 0.353934C12.1967 0.230057 12.1135 5.14612e-07 11.9326 5.30433e-07L9.69486 7.26058e-07C9.64839 7.30121e-07 9.60193 0.0176971 9.56769 0.0505626L0.269651 8.3882C0.184989 8.46431 0.117107 8.55831 0.0705882 8.66385C0.0240699 8.76939 -7.96944e-07 8.88402 -7.86805e-07 9C-7.76666e-07 9.11598 0.02407 9.23061 0.0705883 9.33616C0.117107 9.4417 0.184989 9.53569 0.269651 9.6118Z" fill="#1941A0"/>
</svg>
