<svg width="1360" height="758" viewBox="0 0 1360 758" fill="none" xmlns="http://www.w3.org/2000/svg">
    <rect y="165" width="1360" height="593" fill="#1941A0"/>
    <path opacity="0.05" d="M1504 589.554H1309.61C1361.73 589.554 1388.65 574.548 1428.17 534.887L1961.14 0H2136.3L1603.33 534.887C1554.63 583.766 1516.82 591.698 1504 589.554Z" fill="white"/>
    <path opacity="0.05" d="M1260.6 589.554H1066.21C1118.33 589.554 1145.25 574.548 1184.77 534.887L1717.73 0H1892.9L1359.93 534.887C1311.23 583.766 1273.42 591.698 1260.6 589.554Z" fill="white"/>
    <path opacity="0.05" d="M1019.39 589.554H825C877.122 589.554 904.038 574.548 943.556 534.887L1476.53 0H1651.69L1118.72 534.887C1070.02 583.766 1032.21 591.698 1019.39 589.554Z" fill="white"/>
</svg>
